# xmcd
#
# Track frame offsets: 
#        150
#        19492
#        33002
#        49017
#        68072
#        88355
#        103547
#        124737
#        145017
#        162427
#        187502
#        207747
#
# Disc length: 3014 seconds
#
# Revision: 1
# Processed by: cddbd v1.5.1PL2 Copyright (c) Steve Scherf et al.
# Submitted via: ExactAudioCopy v0.95b4
#
DISCID=a20bc40c
DTITLE=John McCutcheon - Nothing to Lose
DYEAR=1995
DGENRE=Folk
TTITLE0=Leftovers
TTITLE1=Each Season It's the Same
TTITLE2=Way It'sSupposed to Be
TTITLE3=Walk On
TTITLE4=The Memory of Old Jack
TTITLE5=Nothing to Lose
TTITLE6=Losers Like You
TTITLE7=Here on the Islands
TTITLE8=Pant Me a Picture
TTITLE9=Lefty's Bar Tonight
TTITLE10=My Old Man
TTITLE11=Wish You Goodnight
EXTD=
EXTT0=
EXTT1=
EXTT2=
EXTT3=
EXTT4=
EXTT5=
EXTT6=
EXTT7=
EXTT8=
EXTT9=
EXTT10=
EXTT11=
PLAYORDER=
